PathFileType	4	(X/Y/Z)	Kaydara																																																																																																																									
DataRate	CameraRate	NumFrames	NumMarkers	Units	OrigDataRate	OrigDataStartFrame	OrigNumFrames																																																																																																																					
30	30	9	41	mm	30	135	179																																																																																																																					
Frame#	Time	EMLA_LFHD			EMLA_RFHD			EMLA_LBHD			EMLA_RBHD			EMLA_LFTShould			EMLA_RFTShould			EMLA_LRRShould			EMLA_RRRShould			EMLA_T10			EMLA_STRN			EMLA_TRUN			EMLA_LSHO			EMLA_LUPA			EMLA_LELB			EMLA_LFRM			EMLA_LWRA			EMLA_LWRB			EMLA_LFIN			EMLA_RSHO			EMLA_RUPA			EMLA_RELB			EMLA_RFRM			EMLA_RWRA			EMLA_RWRB			EMLA_RFIN			EMLA_LFWT			EMLA_RFWT			EMLA_LBWT			EMLA_RBWT			EMLA_LTHI			EMLA_LKNE			EMLA_LSHN			EMLA_LANK			EMLA_LHEE			EMLA_LTOE			EMLA_RTHI			EMLA_RKNE			EMLA_RSHN			EMLA_RANK			EMLA_RHEE			EMLA_RTOE		
		X1	Y1	Z1	X2	Y2	Z2	X3	Y3	Z3	X4	Y4	Z4	X5	Y5	Z5	X6	Y6	Z6	X7	Y7	Z7	X8	Y8	Z8	X9	Y9	Z9	X10	Y10	Z10	X11	Y11	Z11	X12	Y12	Z12	X13	Y13	Z13	X14	Y14	Z14	X15	Y15	Z15	X16	Y16	Z16	X17	Y17	Z17	X18	Y18	Z18	X19	Y19	Z19	X20	Y20	Z20	X21	Y21	Z21	X22	Y22	Z22	X23	Y23	Z23	X24	Y24	Z24	X25	Y25	Z25	X26	Y26	Z26	X27	Y27	Z27	X28	Y28	Z28	X29	Y29	Z29	X30	Y30	Z30	X31	Y31	Z31	X32	Y32	Z32	X33	Y33	Z33	X34	Y34	Z34	X35	Y35	Z35	X36	Y36	Z36	X37	Y37	Z37	X38	Y38	Z38	X39	Y39	Z39	X40	Y40	Z40	X41	Y41	Z41
																																																																																																																												
135	4.477	292.03314	1600.78308	639.01684	121.81806	1598.92227	641.20888	303.45837	1590.88715	488.98617	108.9992	1591.65024	489.13147	293.1558	1370.30609	580.77148	147.15898	1361.80389	597.00279	269.6739	1417.98798	434.75945	116.87802	1409.30649	453.02364	199.66223	1243.25844	393.90736	223.23799	1299.74243	626.13873	218.10213	1196.64795	645.05013	408.6491	1393.95218	513.85395	473.61191	1225.94902	461.33823	504.05769	1088.88428	429.29699	512.38255	950.72533	412.23465	448.10753	790.21233	480.3479	496.8158	783.40988	410.09285	499.98653	740.93796	464.65359	19.24547	1396.87393	541.08452	-43.97503	1211.45172	580.13451	-72.4774	1066.70624	592.44591	-71.67982	966.21048	623.4903	-2.51203	863.62923	785.86998	-46.08115	813.98422	726.86226	-59.49756	810.98259	791.0038	297.58385	952.48199	609.30546	64.85392	947.97203	578.75343	296.2767	962.28798	406.67244	120.75831	978.23845	397.66766	355.25761	675.57701	547.39243	356.99921	521.22574	690.48172	329.0905	335.40462	695.82809	320.00244	165.95552	603.63407	246.18938	92.88326	542.32944	302.59783	57.80505	727.11838	96.00306	696.1306	370.58052	74.66051	483.91521	422.94601	142.9024	264.30248	408.52661	120.57073	108.38501	313.31102	180.49337	62.26737	254.43693	155.03969	44.86527	454.36218
136	4.51	294.18537	1590.68283	685.42923	123.97601	1589.94965	688.42354	304.91535	1579.27292	535.50392	110.41047	1581.26999	536.48659	294.65588	1358.94547	626.91872	148.17235	1349.57001	643.918	268.99979	1407.91626	481.76472	116.49768	1399.39026	500.37189	199.24702	1233.66867	439.53056	224.40165	1288.10745	672.2506	219.13538	1185.01732	690.9375	409.21867	1383.21579	558.12298	472.28142	1218.70338	495.89912	502.49611	1084.44603	455.10185	512.28859	948.12157	429.09935	454.94259	782.13943	489.15054	500.26924	780.97069	416.19392	507.183	735.36346	467.83211	20.40018	1385.56641	588.58013	-42.71193	1202.74048	636.02081	-72.31396	1059.69032	658.7645	-69.35822	961.69205	698.90167	5.83239	876.43387	868.26149	-38.6772	820.56778	815.89211	-50.12066	824.1082	880.39719	296.04898	940.89783	657.95914	64.56757	938.61778	621.42994	300.43964	952.13692	454.1864	125.3124	969.13422	441.7025	351.50688	665.3743	596.49616	355.67276	513.51551	743.42514	330.81505	331.70898	783.65616	324.73309	146.4848	732.11365	250.87759	61.16381	689.31007	309.92268	67.78281	876.93085	101.99487	696.81351	403.71208	77.33882	481.97578	440.0742	144.49292	263.3761	417.74246	124.42511	111.59563	315.73359	185.99163	67.13983	256.18093	155.62532	44.61154	454.30939
137	4.543	297.09023	1580.2681	732.90855	126.93414	1580.36316	736.47728	307.19486	1567.91855	583.01735	112.731	1570.91324	584.63577	296.68297	1347.99469	674.29634	149.91241	1337.7681	691.81877	269.4552	1398.11584	529.69482	116.74262	1389.24622	548.93032	199.51565	1223.65776	485.94402	226.21523	1276.77834	719.59908	221.03682	1173.58498	737.86758	410.47283	1372.53082	603.97255	470.98434	1210.80605	533.54038	500.4631	1079.44557	486.89346	511.88011	945.97076	452.05902	461.14819	774.4873	502.0195	503.58631	779.97513	427.66888	513.56644	730.78522	475.32459	21.95696	1374.03732	637.67788	-40.70817	1192.94197	691.7276	-70.56361	1052.56737	723.45863	-65.8999	957.43729	770.80566	13.09136	886.84631	944.99512	-31.35434	826.32988	897.97653	-42.03483	834.91173	962.14775	295.96695	929.94499	708.31482	66.50404	929.88251	668.18092	304.60291	940.00565	504.9155	129.71483	959.38599	488.71826	348.57635	651.26503	642.95219	355.98911	501.0088	792.78557	330.65166	331.08753	864.8214	329.6513	139.29002	853.22235	259.78142	45.27116	824.91814	306.4109	91.27102	1010.84267	107.68077	699.0863	440.01823	78.3226	482.71328	460.2496	144.54206	264.76862	428.80016	125.69454	117.87611	319.40298	187.84216	75.95896	258.93147	155.59817	44.39981	454.61727
138	4.577	301.02671	1571.70715	781.23421	130.88331	1572.49893	785.47272	310.4755	1559.31549	631.31042	116.14502	1562.96936	633.65417	298.91146	1338.53439	723.26683	151.87868	1328.09586	741.57166	269.95174	1389.11804	578.67229	117.09566	1380.02197	598.51883	200.05379	1214.39362	535.36247	228.60334	1267.61391	769.22203	223.76617	1164.41017	787.61101	411.68667	1363.21014	651.47133	470.36472	1203.32924	575.8194	498.65734	1074.25171	524.92344	511.95152	944.57497	482.29126	467.03308	768.34961	521.15707	507.21283	780.66315	446.4571	519.31538	728.00812	489.46167	23.82736	1364.7612	688.35495	-37.5221	1185.09239	747.68517	-66.95936	1046.47453	784.99298	-61.01559	954.0255	837.50366	19.15006	894.65576	1015.25955	-24.65292	830.85861	972.03636	-35.33072	843.14522	1035.57808	297.90464	920.62912	760.60349	69.33609	921.8512	716.30104	311.07025	929.98367	557.47375	136.82395	952.06139	538.42129	351.97002	639.73724	692.04353	354.16351	487.98401	838.69789	330.85182	332.2607	933.93028	336.0178	141.62746	952.7166	271.81993	41.82508	935.32761	302.01874	114.67983	1116.32248	110.45252	701.33873	480.19611	78.02275	483.26542	489.4849	143.04851	266.833	445.02197	123.04025	126.91572	326.67877	184.65117	89.18302	263.5243	154.9001	44.07721	455.62328
139	4.61	306.08288	1565.30731	830.02312	136.02183	1567.66464	835.36209	314.47002	1552.80945	680.05867	120.16994	1558.28674	683.6467	301.40316	1333.14178	773.49937	154.29716	1323.15155	793.25272	270.72678	1381.19415	628.93127	118.42855	1372.79938	649.34822	201.00594	1205.82718	587.75841	231.42872	1262.7562	820.9552	226.85009	1159.76608	840.70503	413.38093	1356.45782	699.98886	470.38597	1197.2789	622.69733	497.23476	1069.505	569.44176	512.69764	944.18449	519.72607	472.80285	764.26735	548.56293	512.07756	783.05344	474.50493	524.85374	727.14951	512.80193	25.65199	1358.95996	739.88968	-33.99824	1180.11536	803.10478	-62.19396	1042.22397	843.24722	-55.29309	951.33255	898.67188	23.91429	899.00856	1078.9518	-18.51674	833.2196	1037.52396	-30.18582	847.61703	1100.45334	301.00103	914.85855	814.45801	73.34615	915.34378	768.14323	318.90579	923.62175	612.51167	144.95102	946.73721	591.88591	354.32991	633.10444	746.58432	353.42678	480.94376	891.79253	330.93712	330.81978	991.36139	335.74207	142.29164	1020.01846	269.51471	41.21034	1008.94516	305.29087	121.73512	1186.35864	113.01023	700.62088	529.83269	77.50369	484.07536	528.49102	140.73909	269.98829	467.80037	117.88778	139.68866	338.91819	177.91937	108.131	272.24453	153.8355	43.71673	457.86499
140	4.643	311.79512	1561.53946	879.53362	141.79397	1565.80826	885.99274	319.04051	1547.84103	729.65103	124.86038	1555.52017	734.43871	304.8967	1330.23209	825.85037	157.68008	1320.86517	847.13287	272.76003	1375.57938	680.90904	121.06303	1367.87018	702.11571	202.90909	1199.47487	643.62831	235.2952	1260.78522	875.00267	230.89972	1158.05611	896.28059	415.97031	1352.07321	750.53337	471.18237	1192.66632	672.58003	496.58325	1065.40199	619.49604	513.58269	943.64067	565.9613	477.93186	761.29593	585.87082	517.77084	786.00296	512.75928	530.2457	727.19627	547.38022	28.62306	1356.2915	793.44543	-30.06585	1177.59682	857.827	-57.01258	1039.24171	898.22762	-49.61626	948.85765	954.44801	27.26082	899.23508	1136.48514	-13.34069	832.44148	1094.88892	-26.34387	847.2419	1157.42523	306.89842	913.17429	870.72983	78.65607	908.88062	826.86256	324.41273	922.03308	669.73015	150.20713	940.73746	650.74982	362.90432	633.81901	807.62108	356.76426	479.76986	949.17122	330.08457	321.02985	1041.32057	328.21236	130.09837	1055.88715	258.60868	33.0042	1039.01543	300.61384	101.1035	1219.75624	119.79042	699.38469	587.00039	77.86475	483.59314	577.42123	138.71324	273.46766	498.59776	113.13699	155.93459	358.09437	171.78896	132.49352	288.64157	152.94482	43.22056	462.22828
141	4.677	317.69646	1561.99219	929.98421	147.81425	1567.3056	937.17575	324.33475	1545.90683	780.27184	130.06994	1554.58145	785.91248	309.72002	1329.40323	880.11436	162.21983	1321.15509	903.52104	275.71463	1372.26944	734.25285	124.7028	1366.02585	757.00058	205.22774	1195.64255	700.99762	240.41618	1261.40244	931.18935	236.32357	1159.22386	954.64264	419.73419	1349.49722	803.04565	473.39546	1188.9444	726.13739	497.22237	1061.75606	673.38623	514.81956	942.10701	618.55038	482.77508	758.28949	634.15279	521.76567	786.51161	561.85417	535.12478	726.71951	593.90957	32.77501	1356.23489	850.0106	-25.52778	1176.93665	913.59596	-52.82305	1037.25128	950.83481	-45.31675	946.12373	1005.47867	29.89163	894.55498	1187.55936	-9.56707	828.00682	1144.52026	-23.70887	841.92604	1206.98212	314.64153	917.48383	929.47227	85.92834	903.10715	889.21066	330.63747	924.68201	727.48802	153.34001	936.63437	711.47781	367.60361	637.52254	865.05341	360.5431	482.72312	1006.50139	327.19772	319.90267	1089.78783	325.78651	130.22418	1086.99135	259.97734	41.01842	1052.39082	286.44394	68.53957	1247.83051	129.09037	692.76649	649.36256	78.33951	478.95504	638.67569	136.8123	275.39961	540.67734	110.43324	174.5509	387.01862	169.42205	160.78531	318.08277	153.6616	41.77213	468.72139
142	4.71	323.37009	1567.50061	981.16692	153.41589	1572.92587	988.91853	329.68117	1547.96417	831.76804	135.17752	1556.62247	838.02681	314.11188	1331.39862	935.3334	167.68713	1326.00906	961.38168	279.19331	1375.89767	789.98856	126.93827	1371.25702	816.4109	204.87909	1200.00282	758.95615	245.83416	1264.71397	987.67479	241.85024	1162.87048	1011.88782	423.65566	1350.29694	857.11258	476.03786	1187.11487	782.7742	498.75683	1059.35707	732.42599	516.30634	940.60112	678.15063	486.75941	756.32225	694.65599	524.59717	785.17166	621.86584	538.91918	725.36224	653.37372	36.54066	1360.66071	911.75301	-22.16095	1178.44803	968.19496	-49.24711	1037.67967	999.39552	-41.88561	944.49898	1049.8922	31.85823	885.91164	1230.22743	-7.18109	820.98015	1184.41933	-22.02034	832.72034	1247.14195	323.44799	927.51846	985.7103	94.04997	899.66583	950.49545	329.69002	933.23936	782.12868	153.20666	934.29672	770.92606	378.62644	647.86728	919.91776	368.92555	489.1037	1063.30399	332.19196	317.73678	1129.14856	332.17537	126.18752	1106.14334	263.28854	47.5448	1060.541	292.86108	46.58911	1257.78526	136.20703	681.84036	720.20706	75.63944	469.1412	719.03008	132.04668	274.55383	600.34843	111.19006	194.28602	433.66573	174.70428	192.00365	370.5212	154.23495	37.85178	479.02214
143	4.743	327.3428	1572.30438	1032.61177	157.29601	1577.1698	1040.14862	333.92868	1550.78293	883.53767	139.06487	1558.56506	889.62944	318.03972	1335.23834	988.95706	171.93445	1329.77036	1015.88882	281.53711	1377.65961	843.49075	129.84156	1374.89914	870.23544	206.32256	1203.8414	814.71924	250.43308	1269.50882	1042.70775	246.52355	1167.93846	1068.06389	426.74885	1353.20114	910.52277	478.70441	1187.68661	841.03142	500.87437	1058.30742	793.94577	518.16547	937.78542	743.37814	490.00622	753.75084	766.59401	526.36593	780.52132	692.59354	541.69765	721.93298	725.67528	41.3403	1366.37024	967.70622	-17.17523	1183.71956	1021.78276	-46.06795	1040.47058	1043.10425	-39.59854	944.13231	1087.65999	33.36562	873.50975	1263.95134	-5.71066	811.78055	1213.95981	-21.00567	819.68048	1277.11685	329.75147	935.83549	1037.19452	101.26225	897.62413	1006.61751	331.78986	939.96574	833.85612	155.13358	933.21617	825.73868	388.3604	655.16098	966.44493	381.06739	491.2735	1101.59584	340.89558	314.02212	1155.28473	332.53593	126.92927	1115.52483	263.96698	48.71939	1061.52756	288.90259	44.24936	1260.29961	142.78355	660.37079	795.30357	72.62968	453.18962	808.94951	130.06867	274.26708	673.0471	114.72733	220.6884	495.18829	179.30761	232.50546	440.76878	151.13347	52.7729	503.46333
